<mxfile host="app.diagrams.net" agent="Mozilla/5.0 (Windows NT 10.0; Win64; x64) AppleWebKit/537.36 (KHTML, like Gecko) Chrome/136.0.0.0 Safari/537.36" version="27.1.1">
  <diagram name="Strona-1" id="KZ9B90z3S3tASOlfY4ht">
    <mxGraphModel dx="784" dy="1108" grid="1" gridSize="10" guides="1" tooltips="1" connect="1" arrows="1" fold="1" page="1" pageScale="1" pageWidth="827" pageHeight="1169" math="0" shadow="0">
      <root>
        <mxCell id="0" />
        <mxCell id="1" parent="0" />
        <mxCell id="gEJzy3E88VxmJ1Lfmbdc-21" style="edgeStyle=orthogonalEdgeStyle;rounded=0;orthogonalLoop=1;jettySize=auto;html=1;exitX=0;exitY=0;exitDx=0;exitDy=0;entryX=1;entryY=0;entryDx=0;entryDy=0;" edge="1" parent="1" source="oRbcvazs0dDL7HtmaMeS-32" target="oRbcvazs0dDL7HtmaMeS-7">
          <mxGeometry relative="1" as="geometry">
            <Array as="points">
              <mxPoint x="510" y="90" />
            </Array>
          </mxGeometry>
        </mxCell>
        <mxCell id="gEJzy3E88VxmJ1Lfmbdc-40" style="edgeStyle=orthogonalEdgeStyle;rounded=0;orthogonalLoop=1;jettySize=auto;html=1;exitX=0.5;exitY=1;exitDx=0;exitDy=0;entryX=0.5;entryY=1;entryDx=0;entryDy=0;" edge="1" parent="1" target="oRbcvazs0dDL7HtmaMeS-32">
          <mxGeometry relative="1" as="geometry">
            <mxPoint x="400" y="210" as="sourcePoint" />
            <Array as="points">
              <mxPoint x="590" y="210" />
            </Array>
          </mxGeometry>
        </mxCell>
        <mxCell id="oRbcvazs0dDL7HtmaMeS-32" value="" style="swimlane;startSize=0;" parent="1" vertex="1">
          <mxGeometry x="510" y="85" width="160" height="80" as="geometry" />
        </mxCell>
        <mxCell id="oRbcvazs0dDL7HtmaMeS-34" value="DB: Offers" style="text;html=1;align=center;verticalAlign=middle;whiteSpace=wrap;rounded=0;" parent="oRbcvazs0dDL7HtmaMeS-32" vertex="1">
          <mxGeometry x="80" y="25" width="70" height="30" as="geometry" />
        </mxCell>
        <mxCell id="oRbcvazs0dDL7HtmaMeS-30" value="" style="shape=image;imageAspect=0;aspect=fixed;verticalLabelPosition=bottom;verticalAlign=top;image=data:image/svg+xml,PHN2ZyB4bWxucz0iaHR0cDovL3d3dy53My5vcmcvMjAwMC9zdmciIHdpZHRoPSIxMjgiIGhlaWdodD0iMTI4IiB2aWV3Qm94PSIwIDAgMTI4IDEyOCI+PHBhdGggZD0iTTg1Ljk4OCA3Ni4wNzVjLjYzMi01LjI2Mi40NDMtNi4wMzQgNC4zNjItNS4xODJsLjk5NS4wODhjMy4wMTQuMTM3IDYuOTU3LS40ODUgOS4yNzItMS41NjFjNC45ODYtMi4zMTMgNy45NDItNi4xNzcgMy4wMjYtNS4xNjJjLTExLjIxNSAyLjMxMy0xMS45ODYtMS40ODMtMTEuOTg2LTEuNDgzQzEwMy41IDQ1LjIwNCAxMDguNDUxIDIyLjkgMTA0LjE3OCAxNy40NEM5Mi41MjQgMi41NDggNzIuMzUgOS41OSA3Mi4wMTIgOS43NzNsLS4xMDguMDIxYy0yLjIxNi0uNDYxLTQuNjk1LS43MzUtNy40ODEtLjc4Yy01LjA3NS0uMDgzLTguOTI2IDEuMzMxLTExLjg0NyAzLjU0NmMwIDAtMzUuOTg5LTE0LjgyNy0zNC4zMTUgMTguNjQ2Yy4zNTYgNy4xMjEgMTAuMjA3IDUzLjg4MiAyMS45NTYgMzkuNzU4YzQuMjk0LTUuMTY0IDguNDQ0LTkuNTMxIDguNDQ0LTkuNTMxYzIuMDYxIDEuMzY5IDQuNTI4IDIuMDY3IDcuMTE2IDEuODE2bC4yLS4xN2MtLjA2Mi42NDEtLjAzNSAxLjI2OC4wODEgMi4wMWMtMy4wMjcgMy4zODMtMi4xMzcgMy45NzctOC4xODkgNS4yMjJjLTYuMTIyIDEuMjYyLTIuNTI1IDMuNTA4LS4xNzggNC4wOTVjMi44NDguNzEzIDkuNDMzIDEuNzIyIDEzLjg4NC00LjUwOWwtLjE3Ny43MTFjMS4xODguOTUgMS4xMDcgNi44MjcgMS4yNzUgMTEuMDI2cy40NSA4LjExNyAxLjMwNiAxMC40MjljLjg1NiAyLjMxIDEuODY2IDguMjYxIDkuODE5IDYuNTU3YzYuNjQ2LTEuNDI2IDExLjcyNy0zLjQ3NiAxMi4xOS0yMi41NDUiLz48cGF0aCBkPSJNNzEuMjA4IDEwMi43N2MtMy41MTggMC01LjgwOC0xLjM2LTcuMi0yLjY3NGMtMi4xLTEuOTgxLTIuOTMzLTQuNTM0LTMuNDMtNi4wNTlsLS4yMTUtLjYzN2MtMS4wMDItMi43MDUtMS4zNDEtNi41OTktMS41NDItMTEuNjEzYTE5OSAxOTkgMCAwIDEtLjA3NS0yLjM1MmMtLjAxNy0uNjAxLS4wMzgtMS4zNTUtLjA2OC0yLjE0NmExNS4yIDE1LjIgMCAwIDEtMy45OTcgMS4yNjRjLTIuNDguNDI0LTUuMTQ2LjI4Ni03LjkyNi0uNDA5Yy0xLjk2MS0uNDktMy45OTktMS41MDYtNS4xNi0zLjA3NmMtMy4zODUgMi45NjUtNi42MTQgMi41NjItOC4zNzMgMS45NzZjLTMuMTAzLTEuMDM1LTUuODgtMy45NDItOC40OTEtOC44OWMtMS44NTktMy41MjMtMy42NTgtOC4xMTUtNS4zNDctMTMuNjQ2Yy0yLjk0LTkuNjMzLTQuODA4LTE5Ljc3OS00Ljk3NC0yMy4xMDljLS41MjItMTAuNDI3IDIuMjg0LTE3Ljg4MyA4LjM0LTIyLjE2YzkuNTU1LTYuNzQ5IDI0LjAzLTIuNzgxIDI5LjMwNy0uOTc5YzMuNTQ1LTIuMTM3IDcuNzE2LTMuMTc4IDEyLjQzLTMuMTAyYzIuNTMyLjA0MSA0Ljk0Mi4yNjQgNy4xODEuNjYyYzIuMzM1LS43MzQgNi45NDktMS43ODggMTIuMjMtMS43MjNjOS43My4xMTYgMTcuNzkzIDMuOTA4IDIzLjMxNiAxMC45NjZjMy45NDEgNS4wMzYgMS45OTMgMTUuNjEuNDggMjEuNDY2Yy0yLjEyNyA4LjIzNS01Ljg1NiAxNi45OTYtMTAuNDM2IDI0LjYyMmMxLjI0NC4wMDkgMy4wNDUtLjE0MSA1LjYwNy0uNjY5YzUuMDU0LTEuMDQ0IDYuNTMxIDEuNjY2IDYuOTMyIDIuODc5YzEuNjA3IDQuODY3LTUuMzc4IDguNTQ0LTcuNTU3IDkuNTU1Yy0yLjc5MiAxLjI5Ny03LjM0MyAyLjA4Ni0xMS4wNzEgMS45MTVsLS4xNjMtLjAxMWwtLjk3OS0uMDg2bC0uMDk3LjgxNmwtLjA5My43OTljLS4yNSA5LjY2NC0xLjYzMSAxNS43ODQtNC40NzIgMTkuODI5Yy0yLjk3NyA0LjIzOS03LjExNiA1LjQyOC0xMC43NjEgNi4yMDlhMTYgMTYgMCAwIDEtMy4zOTYuMzgzbS03LjQwMi0zNS4xNzRjMi4yNzEgMS44MTcgMi40NyA1LjIzNiAyLjY0NyAxMS42MjZjLjAyMi43OTcuMDQzIDEuNTUyLjA3MSAyLjI1N2MuMDg2IDIuMTM0LjI4NyA3LjEzMiAxLjA2OSA5LjI0NGMuMTExLjI5OC4yMS42MDIuMzE0LjkyMmMuODcyIDIuNjcyIDEuMzEgNC4wMTEgNS4wODEgMy4yMDNjMy4xNjctLjY3OCA0Ljc5NC0xLjI4NyA2LjA2OC0zLjEwMWMxLjg1Mi0yLjYzOCAyLjg4OC03Ljk0MSAzLjA3OC0xNS43NjdsMy44NTIuMDk0bC0zLjgyNi0uNDU5bC4xMTItLjk1NWMuMzY3LTMuMTQ4LjYzMS01LjQyNCAyLjczNi02LjkyOGMxLjY4OC0xLjIwNyAzLjYxMy0xLjA5IDUuMTQ2LS44MTRjLTEuNjg0LTEuMjcxLTIuMTUtMi43NjUtMi4yNzQtMy4zNzdsLS4zMjEtMS41ODJsLjkwMi0xLjM0YzUuMi03LjcxNiA5LjQ4OS0xNy4xOTkgMTEuNzY3LTI2LjAxOGMyLjM0LTkuMDYyIDEuNjI2LTEzLjg3NS45MTMtMTQuNzg1Yy05LjQ0Ni0xMi4wNzEtMjUuODI5LTcuMDg4LTI3LjUzOS02LjUyMWwtLjI5LjE1NmwtMS40NS4yNzFsLS43NDMtLjE1NGMtMi4wNDctLjQyNS00LjMyMS0uNjYtNi43Ni0uN2MtMy44MzEtLjA2NC02LjkyMS44NDEtOS40NTUgMi43NjRsLTEuNzU4IDEuMzMzbC0yLjA0MS0uODQxYy00LjM1OC0xLjc4Mi0xNy4xNjItNS4zNjUtMjMuOTE4LS41OGMtMy43NSAyLjY1Ni01LjQ1OCA3Ljg2MS01LjA3OCAxNS40N2MuMTI1IDIuNTEyIDEuODMzIDEyLjAyMSA0LjY0NyAyMS4yNDVjMy44OTEgMTIuNzQ2IDcuNDI3IDE2Ljk3OSA4LjkwMyAxNy40NzJjLjI1Ny4wODcuOTI2LS40MzMgMS41OTEtMS4yMzFjNC4zMjYtNS4yMDMgOC40NC05LjU0IDguNjEzLTkuNzIzbDIuMjMxLTIuMzQ3bDIuNjk3IDEuNzkyYzEuMDg3LjcyMyAyLjI4NiAxLjEzMiAzLjUxOCAxLjIwOWw2LjQzMy01LjQ4NmwtLjkzMiA5LjUxYy0uMDIxLjIxNC0uMDMxLjUwNC4wNTMgMS4wNDRsLjI4IDEuODAzbC0xLjIxMyAxLjM1OGwtLjE0LjE1N2wzLjUzNCAxLjYzMnoiLz48cGF0aCBmaWxsPSIjMzM2NzkxIiBkPSJNMTAzLjY0NiA2NC4yNThjLTExLjIxNiAyLjMxMy0xMS45ODctMS40ODQtMTEuOTg3LTEuNDg0YzExLjg0Mi0xNy41NzEgMTYuNzkyLTM5Ljg3NiAxMi41Mi00NS4zMzVDOTIuNTI0IDIuNTQ3IDcyLjM1IDkuNTkgNzIuMDEzIDkuNzczbC0uMTA5LjAxOWMtMi4yMTYtLjQ1OS00LjY5NS0uNzMzLTcuNDgyLS43NzhjLTUuMDc1LS4wODMtOC45MjUgMS4zMy0xMS44NDYgMy41NDVjMCAwLTM1Ljk5LTE0LjgyNi0zNC4zMTYgMTguNjQ3Yy4zNTYgNy4xMjEgMTAuMjA3IDUzLjg4MiAyMS45NTYgMzkuNzU4YzQuMjk0LTUuMTY0IDguNDQzLTkuNTMxIDguNDQzLTkuNTMxYzIuMDYxIDEuMzY5IDQuNTI4IDIuMDY3IDcuMTE1IDEuODE2bC4yMDEtLjE3Yy0uMDYyLjY0MS0uMDM0IDEuMjY4LjA4IDIuMDFjLTMuMDI2IDMuMzgzLTIuMTM4IDMuOTc3LTguMTg4IDUuMjIyYy02LjEyMyAxLjI2Mi0yLjUyNiAzLjUwOC0uMTc3IDQuMDk1YzIuODQ3LjcxMyA5LjQzMyAxLjcyMiAxMy44ODMtNC41MDlsLS4xNzguNzExYzEuMTg2Ljk1IDIuMDE5IDYuMTc5IDEuODc5IDEwLjkxOXMtLjIzMyA3Ljk5NC43MDIgMTAuNTM2czEuODY2IDguMjYxIDkuODIgNi41NTdjNi42NDYtMS40MjUgMTAuMDktNS4xMTYgMTAuNTctMTEuMjcyYy4zNC00LjM3NyAxLjEwOS0zLjczIDEuMTU4LTcuNjQ0bC42MTgtMS44NTNjLjcxMS01LjkzNC4xMTMtNy44NDggNC4yMDgtNi45NTdsLjk5NS4wODdjMy4wMTQuMTM4IDYuOTU4LS40ODUgOS4yNzMtMS41NjFjNC45ODYtMi4zMTQgNy45NDMtNi4xNzcgMy4wMjgtNS4xNjIiLz48cGF0aCBmaWxsPSIjZmZmIiBkPSJNNzEuNjEgMTAwLjM5NGMtNi42MzEuMDAxLTguNzMxLTUuMjUtOS41OTEtNy4zOTdjLTEuMjU3LTMuMTQ2LTEuNTI5LTE1LjM1OC0xLjI0OS0yNS4zNzNhMS4yODYgMS4yODYgMCAwIDEgMi41Ny4wNzJjLS4zMjMgMTEuNTUxLjEzNiAyMi4wMTggMS4wNjYgMjQuMzQ2YzEuNDUzIDMuNjMyIDMuNjU2IDYuODA5IDkuODg3IDUuNDc1YzUuOTE1LTEuMjY5IDguMTMtMy41MTIgOS4xMTYtOS4yM2MuNzU4LTQuMzg5IDIuMjU0LTE2Ljg3NCAyLjQzOC0xOS4zMzhhMS4yODUgMS4yODUgMCAwIDEgMi41NjMuMTkxYy0uMTkyIDIuNTY0LTEuNjgyIDE1LjAyNi0yLjQ2OSAxOS41ODRjLTEuMTY1IDYuNzU1LTQuMTc2IDkuODE5LTExLjExIDExLjMwNmExNS41IDE1LjUgMCAwIDEtMy4yMjEuMzY0TTM1LjY1OSA3NC43NDlhNS4zIDUuMyAwIDAgMS0xLjcwNC0uMjgxYy00LjMwNy0xLjQzNy04LjQwOS04LjQ1MS0xMi4xOTMtMjAuODQ5Yy0yLjg4LTkuNDM4LTQuNzA1LTE5LjI4OC00Ljg2NS0yMi40ODljLS40NzUtOS40OSAxLjk3LTE2LjIwNSA3LjI2NS0xOS45NTdjMTAuNDc2LTcuNDIzIDI4LjEtLjM1NCAyOC44NDUtLjA1YTEuMjg1IDEuMjg1IDAgMCAxLS45NzIgMi4zNzl2LjAwMWMtLjE3LS4wNy0xNy4wNy02Ljg0LTI2LjM5Mi0uMjI5Yy00LjUyOCAzLjIxMS02LjYwNyA5LjE3NS02LjE4IDE3LjcyOWMuMTM1IDIuNjk2IDEuODQgMTIuMzExIDQuNzU3IDIxLjg2N2MzLjM3OCAxMS4wNjcgNy4yMjMgMTguMDUyIDEwLjU0OCAxOS4xNmMuNTIxLjE3NSAyLjEwOS43MDQgNC4zODEtMi4wMjZjNC4yNzItNS4xNCA4LjE5Ny05LjI0MiA4LjIzNi05LjI4M2ExLjI4NiAxLjI4NiAwIDAgMSAxLjg1NiAxLjc3OGMtLjAzOS4wNC0zLjkwNCA0LjA4MS04LjExNiA5LjE0OGMtMS45OTUgMi4zOTgtMy45MDggMy4xMDItNS40NjYgMy4xMDJtNTUuOTItMTAuODI5YTEuMjg0IDEuMjg0IDAgMCAxLTEuMDY1LTIuMDA0YzExLjk3MS0xNy43NjQgMTYuMTczLTM5LjIyNyAxMi41NzQtNDMuODI1Yy00LjUzLTUuNzg4LTEwLjkyNy04LjgxMi0xOS4wMTItOC45ODVjLTUuOTg3LS4xMy0xMC43NDYgMS4zOTktMTEuNTIzIDEuNjY2bC0uMTk1LjA3OWMtLjc4Mi4yNDYtMS4zODItLjE4My0xLjYwOC0uNjg0YTEuMjkgMS4yOSAwIDAgMSAuNTA4LTEuNjMxbC4zNDYtLjE0MmwtLjAxNy4wMDVsLjAxOC0uMDA2YzEuMzIxLS40ODMgNi4xNTItMS45MzMgMTIuMTM3LTEuODY0YzguOTQ3LjA5NCAxNi4zMzcgMy41NDUgMjEuMzcxIDkuOTc3YzIuMzgyIDMuMDQ0IDIuMzg3IDEwLjA1Ny4wMTUgMTkuMjRjLTIuNDE4IDkuMzYyLTYuOTY4IDE5LjQyNS0xMi40ODIgMjcuNjA3YTEuMjggMS4yOCAwIDAgMS0xLjA2Ny41NjdtLjYxMSA4LjIyM2MtMi4wNDQgMC0zLjg3Ni0uMjg3LTQuOTczLS45NDVjLTEuMTI4LS42NzUtMS4zNDMtMS41OTQtMS4zNzEtMi4wODFjLS4zMDgtNS40MDQgMi42NzQtNi4zNDUgNC4xOTUtNi43NzRjLS4yMTItLjMyLS41MTQtLjY5Ny0uODI1LTEuMDg2Yy0uODg3LTEuMTA4LTIuMTAxLTIuNjI2LTMuMDM3LTQuODk2Yy0uMTQ2LS4zNTQtLjYwNi0xLjE3OS0xLjEzOC0yLjEzM2MtMi44ODMtNS4xNjktOC44ODEtMTUuOTI2LTUuMDI4LTIxLjQzNWMxLjc4NC0yLjU0OSA1LjMzNC0zLjU1MiAxMC41NjYtMi45OTJjLTEuNTM5LTQuNjg5LTguODY5LTE5LjM1OC0yNi4yNTktMTkuNjQzYy01LjIzMS0uMDg4LTkuNTIxIDEuNTIxLTEyLjc0NCA0Ljc3NWMtNy4yMTcgNy4yODktNi45NTUgMjAuNDc3LTYuOTUyIDIwLjYwOGExLjI4NCAxLjI4NCAwIDEgMS0yLjU2OS4wNjdjLS4wMTYtLjU4NS0uMjg2LTE0LjQyNCA3LjY5NS0yMi40ODRjMy43MzUtMy43NzIgOC42NTEtNS42MzQgMTQuNjEyLTUuNTM3Qzc1LjQ5IDcuNzcgODIuNjUxIDEzLjQyNiA4Ni43IDE4LjE0YzQuNDEyIDUuMTM2IDYuNTc2IDEwLjgwMiA2Ljc1NCAxMi42OTJjLjEzMyAxLjQwNi0uODc2IDEuNjg4LTEuMDggMS43MjlsLS40NjMuMDExYy01LjEzNS0uODIyLTguNDI5LS4yNTItOS43OTEgMS42OTVjLTIuOTMxIDQuMTg4IDIuNzQzIDE0LjM2MyA1LjE2NiAxOC43MDljLjYxOSAxLjEwOCAxLjA2NSAxLjkwOSAxLjI2OSAyLjQwNGMuNzk2IDEuOTMgMS44MzQgMy4yMjcgMi42NjggNC4yNjljLjczMy45MTcgMS4zNjkgMS43MTEgMS41OTcgMi42NDVjLjEwNS4xODUgMS42MDMgMi4zOTkgMTAuNDg4LjU2NWMyLjIyNy0uNDU5IDMuNTYyLS4wNjYgMy45NyAxLjE2OGMuODAzIDIuNDI5LTMuNzAyIDUuMjYxLTYuMTk2IDYuNDJjLTIuMjM4IDEuMDM5LTUuODA1IDEuNjk2LTguODkyIDEuNjk2bS0zLjc4MS0zLjIzOGMuMjgxLjI4NSAxLjY5MS43NzUgNC42MTIuNjVjMi41OTYtLjExMiA1LjMzNS0uNjc3IDYuOTc5LTEuNDM5YzIuMTAyLS45NzYgMy41MDQtMi4wNjcgNC4yMzEtMi44MTJsLS40MDQuMDc0Yy01LjY4MSAxLjE3My05LjY5OSAxLjAxNy0xMS45NDItLjQ2NWE1IDUgMCAwIDEtLjQzNS0uMzIzYy0uMjQzLjA5Ni0uNDY4LjE1OS0uNjI4LjIwNGMtMS4yNzMuMzU3LTIuNTg5LjcyNi0yLjQxMyA0LjExMW0tMzYuNjk3IDcuMTc5Yy0xLjQxMSAwLTIuODk2LS4xOTEtNC40MTMtLjU3MmMtMS41NzEtLjM5My00LjIyMS0xLjU3Ni00LjE4LTMuNTE5Yy4wNDUtMi4xODEgMy4yMTYtMi44MzUgNC40MTEtMy4wODFjNC4zMTItLjg4OCA0LjU5My0xLjI0NCA1Ljk0MS0yLjk1NWMuMzkzLS40OTkuODgyLTEuMTIgMS41NDgtMS44NjVjLjk5LTEuMTA3IDIuMDcyLTEuNjY5IDMuMjE2LTEuNjY5Yy43OTYgMCAxLjQ1LjI3MSAxLjg4MS40NDljMS4zNzYuNTcgMi41MjQgMS45NDggMi45OTYgMy41OThjLjQyNiAxLjQ4OC4yMjMgMi45Mi0uNTcyIDQuMDMyYy0yLjYwOCAzLjY1My02LjM1MiA1LjU4Mi0xMC44MjggNS41ODJtLTUuODE3LTMuOThjLjM4OC4yOTkgMS4xNjQuNjk5IDIuMDI3LjkxNmMxLjMxNC4zMjggMi41ODguNDk1IDMuNzkuNDk1YzMuNjYyIDAgNi42MDEtMS41MTcgOC43MzctNC41MDZjLjQ0NS0uNjI0LjMxMi0xLjQxNS4xOTMtMS44MzJjLS4yNS0uODcyLS44Ny0xLjY2NS0xLjUwOS0xLjkzMWMtLjM0Ny0uMTQ0LS42MzQtLjI1NC0uODk4LS4yNTRjLS4xNDIgMC0uNTczIDAtMS4zLjgxM2MtLjYxNC42ODYtMS4wNTUgMS4yNDYtMS40NDYgMS43NDFjLTEuNjc4IDIuMTMxLTIuNDQ3IDIuODU0LTcuNDQxIDMuODgzYy0xLjIxOC4yNTItMS44NDMuNTA2LTIuMTUzLjY3NW05Ljg4Mi01LjkyOGExLjI4NiAxLjI4NiAwIDAgMS0xLjI2OS0xLjA5YTYgNiAwIDAgMS0uMDY0LS42NDRjLTMuMjc0LS4wNjItNi40MzItMS40NjYtOC44MjktMy45NjhjLTMuMDMxLTMuMTYzLTQuNDExLTcuNTQ1LTMuNzg1LTEyLjAyMmMuNjgtNC44NjIuNDI2LTkuMTU0LjI4OS0xMS40NmEyNiAyNiAwIDAgMS0uMDYzLTEuNDI1Yy4wMDItLjQwNi4wMS0xLjQ4NSAzLjYxNS0zLjMxMmMxLjI4Mi0uNjUgMy44NTMtMS43ODQgNi42NjEtMi4wNzVjNC42NTQtLjQ4IDcuNzIxIDEuNTkyIDguNjM5IDUuODM2YzIuNDc4IDExLjQ2LjE5NiAxNi41MjktMS40NyAyMC4yM2MtLjMxMS42ODgtLjYwNCAxLjM0LS44MzggMS45N2wtLjIwNy41NTdjLS44OCAyLjM2LTEuNjQxIDQuMzk5LTEuNDA3IDUuOTIzYTEuMjg3IDEuMjg3IDAgMCAxLTEuMDc1IDEuNDY2ek00NC42MzQgMzUuOTIybC4wNTEuOTE4Yy4xNDIgMi4zOTUuNDA2IDYuODUzLS4zMSAxMS45NjljLS41MTYgMy42OTIuNjEyIDcuMjk3IDMuMDk1IDkuODg4YzEuOTYyIDIuMDQ4IDQuNTQ2IDMuMTc4IDcuMjAxIDMuMTc4aC4wNTVjLjI5OC0xLjI1My43OTEtMi41NzUgMS4zMjItNGwuMjA2LS41NTNjLjI2NS0uNzEyLjU3NS0xLjQwMS45MDMtMi4xM2MxLjYwNC0zLjU2NCAzLjYtOCAxLjMwMS0xOC42MzNjLS40NTYtMi4xMDUtMS41Ni0zLjMyNC0zLjM3NS0zLjcyNmMtMy43MjgtLjgyNC05LjI4MyAxLjk4LTEwLjQ0OSAzLjA4OW03Ljc1Ni0uNTQ1Yy0uMDY0LjQ1NC44MzMgMS42NjcgMi4wMDEgMS44MjljMS4xNjcuMTYzIDIuMTY2LS43ODUgMi4yMjktMS4yMzlzLS44MzMtLjk1NS0yLjAwMi0xLjExOGMtMS4xNjctLjE2My0yLjE2Ni4wNzMtMi4yMjguNTI4bTIuMjcgMi4yNzdsLS4zMjgtLjAyM2MtLjcyNS0uMTAxLTEuNDU4LS41NTgtMS45NTktMS4yMjNjLS4xNzYtLjIzMy0uNDY0LS42ODctLjQwNy0xLjA5MWMuMDgyLS41OTMuODA0LS45NDcgMS45MzMtLjk0N3EuMzgxIDAgLjc4LjA1NWMuNjE2LjA4NiAxLjE4OS4yNjQgMS42MTIuNWMuNzMzLjQxLjc4Ny44NjYuNzU0IDEuMTAzYy0uMDkxLjY1My0xLjEzMyAxLjYyNi0yLjM4NSAxLjYyNm0tMS44NDQtMi4yMDFjLjAzNy4yOC43MyAxLjIwNSAxLjYzNCAxLjMzbC4yMDkuMDE1Yy44MzQgMCAxLjQ1OC0uNjU3IDEuNTMxLS44NzJjLS4wNzctLjE0Ni0uNjEzLS41MTEtMS42MzEtLjY1MWE1IDUgMCAwIDAtLjY2MS0uMDQ4Yy0uNjUyLS4wMDEtMS4wMDEuMTQ2LTEuMDgyLjIyNm0zNS4xMjEtMS4wMDNjLjA2My40NTUtLjgzMiAxLjY2OC0yLjAwMSAxLjgzYy0xLjE2OC4xNjItMi4xNjctLjc4NS0yLjIzMS0xLjI0Yy0uMDYyLS40NTQuODM0LS45NTUgMi4wMDItMS4xMTdjMS4xNjgtLjE2NCAyLjE2Ni4wNzQgMi4yMy41MjdtLTIuMjcgMi4wNjJjLTEuMTI1IDAtMi4wOTQtLjg3NS0yLjE3NC0xLjQ0MmMtLjA5Mi0uNjgxIDEuMDI5LTEuMTk5IDIuMTg1LTEuMzU5cS4zODMtLjA1NC43NDktLjA1NGMuOTk3IDAgMS42NTcuMjkzIDEuNzIzLjc2NGMuMDQzLjMwNi0uMTkxLjc3Ny0uNTk1IDEuMjAxYy0uMjY2LjI4LS44MjYuNzY1LTEuNTg4Ljg3em0uNzU5LTIuNDI3cS0uMzM2IDAtLjY5LjA0OWMtMS4xNjIuMTYxLTEuODUzLjYyOC0xLjgyLjg3OGMuMDM5LjI3NC43OCAxLjA3MiAxLjc1IDEuMDcybC4yMzktLjAxN2MuNjM0LS4wODkgMS4xMS0uNTAyIDEuMzM3LS43NDFjLjM1Ni0uMzc1LjQ5OC0uNzI3LjQ4MS0uODQ4Yy0uMDIxLS4xNTctLjQ0OS0uMzkzLTEuMjk3LS4zOTNtMy4xOTQgMjYuNDUzYTEuMjg1IDEuMjg1IDAgMCAxLTEuMDY3LTJjMi43MzYtNC4wODcgMi4yMzUtOC4yNTYgMS43NTEtMTIuMjg2Yy0uMjA3LTEuNzE4LS40Mi0zLjQ5My0uMzY0LTUuMTk4Yy4wNTYtMS43NTMuMjc4LTMuMTk5LjQ5NC00LjU5OWMuMjU1LTEuNjU3LjQ5Ni0zLjIyNC4zOTYtNS4wODJhMS4yODYgMS4yODYgMCAwIDEgMi41NjctLjEzOGMuMTE0IDIuMTI0LS4xNTkgMy44OTYtLjQyMyA1LjYxMWMtLjIwNCAxLjMyMy0uNDE1IDIuNjkxLS40NjYgNC4yOWMtLjA0OSAxLjUwOS4xNDQgMy4xMTIuMzQ4IDQuODA4Yy41MTYgNC4yODcgMS4wOTkgOS4xNDYtMi4xNjcgMTQuMDIzYy0uMjQ4LjM3LS42NTUuNTcxLTEuMDY5LjU3MSIvPjxwYXRoIGQ9Ik0yLjgzNSAxMDMuMTg0YTI2IDI2IDAgMCAxIDQuMzQzLS4zMzhjMi4yMzUgMCAzLjg3NC41MiA0LjkxNCAxLjQ1NmMuOTYyLjgzMiAxLjUzNCAyLjEwNiAxLjUzNCAzLjY2N2MwIDEuNTg2LS40NjkgMi44MzQtMS4zNTMgMy43NDRjLTEuMTk2IDEuMjc0LTMuMTQ2IDEuOTI0LTUuMzU2IDEuOTI0Yy0uNjc2IDAtMS4zLS4wMjYtMS44MTktLjE1NnY3LjAyMUgyLjgzNXptMi4yNjMgOC40NWMuNDk0LjEzIDEuMTE4LjE4MiAxLjg3Mi4xODJjMi43MjkgMCA0LjM5NC0xLjMyNiA0LjM5NC0zLjc0NGMwLTIuMzE0LTEuNjM4LTMuNDMyLTQuMTM0LTMuNDMyYy0uOTg4IDAtMS43NDIuMDc4LTIuMTMyLjE4MnptMjIuMjMgMi40N2MwIDQuNjU0LTMuMjI1IDYuNjgzLTYuMjY3IDYuNjgzYy0zLjQwNiAwLTYuMDMyLTIuNDk2LTYuMDMyLTYuNDc1YzAtNC4yMTIgMi43NTYtNi42ODIgNi4yNC02LjY4MmMzLjYxNS0uMDAxIDYuMDU5IDIuNjI2IDYuMDU5IDYuNDc0bS05Ljk4NC4xM2MwIDIuNzU2IDEuNTg2IDQuODM2IDMuODIyIDQuODM2YzIuMTg0IDAgMy44MjEtMi4wNTQgMy44MjEtNC44ODhjMC0yLjEzMi0xLjA2NS00LjgzNi0zLjc3LTQuODM2cy0zLjg3MyAyLjQ5Ni0zLjg3MyA0Ljg4OG0xMi41NTcgMy45MjZjLjY3Ni40NDIgMS44NzIuOTEgMy4wMTYuOTFjMS42NjQgMCAyLjQ0NC0uODMyIDIuNDQ0LTEuODcyYzAtMS4wOTItLjY0OS0xLjY5LTIuMzQtMi4zMTRjLTIuMjYyLS44MDYtMy4zMjgtMi4wNTQtMy4zMjgtMy41NjJjMC0yLjAyOCAxLjYzOC0zLjY5MiA0LjM0Mi0zLjY5MmMxLjI3NCAwIDIuMzkzLjM2NCAzLjA5NS43OGwtLjU3MiAxLjY2NGE0LjkgNC45IDAgMCAwLTIuNTc0LS43MjhjLTEuMzUyIDAtMi4xMDYuNzgtMi4xMDYgMS43MTZjMCAxLjA0Ljc1NSAxLjUwOCAyLjM5MyAyLjEzMmMyLjE4NC44MzIgMy4zMDIgMS45MjQgMy4zMDIgMy43OTZjMCAyLjIxLTEuNzE2IDMuNzctNC43MDYgMy43N2MtMS4zNzggMC0yLjY1Mi0uMzM4LTMuNTM2LS44NTh6bTEzLjM2NS0xMy44NTl2My42MTRoMy4yNzV2MS43NDJoLTMuMjc1djYuNzg2YzAgMS41Ni40NDEgMi40NDQgMS43MTYgMi40NDRhNSA1IDAgMCAwIDEuMzI2LS4xNTZsLjEwNCAxLjcxNmMtLjQ0MS4xODItMS4xNDQuMzEyLTIuMDI3LjMxMmMtMS4wNjYgMC0xLjkyNS0uMzM4LTIuNDcxLS45NjJjLS42NDktLjY3Ni0uODg0LTEuNzk0LS44ODQtMy4yNzZ2LTYuODY0aC0xLjk1di0xLjc0MmgxLjk1di0zLjAxNnptMTYuNTM2IDMuNjE1Yy0uMDUzLjkxLS4xMDQgMS45MjQtLjEwNCAzLjQ1OHY3LjMwNmMwIDIuODg2LS41NzIgNC42NTQtMS43OTQgNS43NDdjLTEuMjIyIDEuMTQ0LTIuOTkgMS41MDgtNC41NzYgMS41MDhjLTEuNTA4IDAtMy4xNzItLjM2NC00LjE4Ny0xLjA0bC41NzItMS43NDJjLjgzMi41MiAyLjEzMi45ODggMy42OTIuOTg4YzIuMzQgMCA0LjA1Ni0xLjIyMiA0LjA1Ni00LjM5NHYtMS40MDRoLS4wNTJjLS43MDIgMS4xNy0yLjA1NCAyLjEwNi00LjAwNCAyLjEwNmMtMy4xMiAwLTUuMzU2LTIuNjUyLTUuMzU2LTYuMTM3YzAtNC4yNjQgMi43ODItNi42ODIgNS42NjgtNi42ODJjMi4xODUgMCAzLjM4MSAxLjE0NCAzLjkyNyAyLjE4NGguMDUybC4xMDQtMS44OTh6bS0yLjM2NiA0Ljk2NmMwLS4zOS0uMDI2LS43MjgtLjEzLTEuMDRjLS40MTYtMS4zMjYtMS41MzQtMi40MTgtMy4xOTgtMi40MThjLTIuMTg1IDAtMy43NDQgMS44NDYtMy43NDQgNC43NThjMCAyLjQ3IDEuMjQ4IDQuNTI0IDMuNzE4IDQuNTI0YzEuNDA0IDAgMi42NzgtLjg4NCAzLjE3Mi0yLjM0Yy4xMy0uMzkuMTgzLS44MzIuMTgzLTEuMjIydi0yLjI2MnptNS45MDEtMS4wNGMwLTEuNDgyLS4wMjYtMi43NTYtLjEwNC0zLjkyNmgyLjAwM2wuMDc3IDIuNDdoLjEwNGMuNTcyLTEuNjkgMS45NS0yLjc1NiAzLjQ4NC0yLjc1NmMuMjYgMCAuNDQxLjAyNi42NDkuMDc4djIuMTU4YTMuNCAzLjQgMCAwIDAtLjc3OS0uMDc4Yy0xLjYxMiAwLTIuNzU3IDEuMjIyLTMuMDY4IDIuOTM4YTYuNCA2LjQgMCAwIDAtLjEwNCAxLjA2NnY2LjcwOGgtMi4yNjJ6bTkuNTE3IDIuNzgyYy4wNTIgMy4wOTQgMi4wMjcgNC4zNjggNC4zMTUgNC4zNjhjMS42MzkgMCAyLjYyNi0uMjg2IDMuNDg0LS42NWwuMzkgMS42MzhjLS44MDYuMzY0LTIuMTg0Ljc4LTQuMTg2Ljc4Yy0zLjg3NCAwLTYuMTg4LTIuNTQ4LTYuMTg4LTYuMzQ0czIuMjM2LTYuNzg3IDUuOTAyLTYuNzg3YzQuMTA4IDAgNS4yIDMuNjE0IDUuMiA1LjkyOGMwIC40NjgtLjA1Mi44MzItLjA3OCAxLjA2NmgtOC44Mzl6bTYuNzA4LTEuNjM4Yy4wMjUtMS40NTYtLjU5OS0zLjcxOC0zLjE3Mi0zLjcxOGMtMi4zMTQgMC0zLjMyOCAyLjEzMi0zLjUxMSAzLjcxOHoiLz48cGF0aCBmaWxsPSIjMzM2NzkxIiBkPSJNODQuMzcxIDExNy43NDRhOCA4IDAgMCAwIDQuMDU2IDEuMTQ0YzIuMzE0IDAgMy42NjYtMS4yMjIgMy42NjYtMi45OWMwLTEuNjM4LS45MzYtMi41NzQtMy4zMDItMy40ODRjLTIuODYtMS4wMTQtNC42MjgtMi40OTYtNC42MjgtNC45NjZjMC0yLjczIDIuMjYyLTQuNzU4IDUuNjY4LTQuNzU4YzEuNzk0IDAgMy4wOTQuNDE2IDMuODc0Ljg1OGwtLjYyNCAxLjg0NmE3IDcgMCAwIDAtMy4zMjgtLjgzMmMtMi4zOTIgMC0zLjMwMiAxLjQzLTMuMzAyIDIuNjI2YzAgMS42MzggMS4wNjUgMi40NDQgMy40ODQgMy4zOGMyLjk2NCAxLjE0NSA0LjQ3MiAyLjU3NCA0LjQ3MiA1LjE0OGMwIDIuNzA0LTIuMDAyIDUuMDQ0LTYuMTM2IDUuMDQ0Yy0xLjY5IDAtMy41MzYtLjQ5NC00LjQ3My0xLjExOHptMjcuNTg2IDUuMzNhOTUgOTUgMCAwIDEtNi43MDgtMi4wMjhjLS4zNjQtLjEzLS43MjgtLjI2LTEuMDY2LS4yNmMtNC4xNi0uMTU2LTcuNzIyLTMuMjI0LTcuNzIyLTguODY2YzAtNS42MTYgMy40MzItOS4yMyA4LjE2NC05LjIzYzQuNzU4IDAgNy44NTMgMy42OTIgNy44NTMgOC44NjZjMCA0LjQ5OC0yLjA4IDcuMzg0LTQuOTkyIDguMzk4di4xMDRjMS43NDIuNDQyIDMuNjQuODU4IDUuMTIyIDEuMTE4em0tMS44NzItMTEuNDE0YzAtMy41MS0xLjgxOS03LjEyNS01LjUzOC03LjEyNWMtMy44MjIgMC01LjY5NCAzLjUzNi01LjY2OCA3LjMzM2MtLjAyNiAzLjcxOCAyLjAyOCA3LjA3MiA1LjU2NCA3LjA3MmMzLjYxNSAwIDUuNjQyLTMuMjc2IDUuNjQyLTcuMjhtNS4zMjktOC42ODRoMi4yNjN2MTUuNjI2aDcuNDg4djEuODk4aC05Ljc1MXoiLz48L3N2Zz4=;imageBackground=light-dark(#FFFFFF,#FFFFFF);" parent="oRbcvazs0dDL7HtmaMeS-32" vertex="1">
          <mxGeometry x="10" y="10" width="60" height="60" as="geometry" />
        </mxCell>
        <mxCell id="oRbcvazs0dDL7HtmaMeS-35" value="" style="image;sketch=0;aspect=fixed;html=1;points=[];align=center;fontSize=12;image=img/lib/mscae/Docker.svg;" parent="1" vertex="1">
          <mxGeometry x="510" y="50" width="36.59" height="30" as="geometry" />
        </mxCell>
        <mxCell id="oRbcvazs0dDL7HtmaMeS-36" value="C3" style="text;html=1;align=center;verticalAlign=middle;whiteSpace=wrap;rounded=0;" parent="1" vertex="1">
          <mxGeometry x="530" y="50" width="60" height="30" as="geometry" />
        </mxCell>
        <mxCell id="gEJzy3E88VxmJ1Lfmbdc-7" value="" style="group" vertex="1" connectable="0" parent="1">
          <mxGeometry x="239.99999999999997" y="90" width="60.00000000000006" height="90" as="geometry" />
        </mxCell>
        <mxCell id="gEJzy3E88VxmJ1Lfmbdc-15" style="edgeStyle=orthogonalEdgeStyle;rounded=0;orthogonalLoop=1;jettySize=auto;html=1;exitX=0;exitY=0.75;exitDx=0;exitDy=0;entryX=0;entryY=0.75;entryDx=0;entryDy=0;" edge="1" parent="gEJzy3E88VxmJ1Lfmbdc-7" target="oRbcvazs0dDL7HtmaMeS-7">
          <mxGeometry relative="1" as="geometry">
            <mxPoint x="-99.99999999999997" y="45" as="sourcePoint" />
          </mxGeometry>
        </mxCell>
        <mxCell id="gEJzy3E88VxmJ1Lfmbdc-16" style="edgeStyle=orthogonalEdgeStyle;rounded=0;orthogonalLoop=1;jettySize=auto;html=1;exitX=0;exitY=0.25;exitDx=0;exitDy=0;" edge="1" parent="gEJzy3E88VxmJ1Lfmbdc-7" source="oRbcvazs0dDL7HtmaMeS-7">
          <mxGeometry relative="1" as="geometry">
            <mxPoint x="-99.99999999999997" y="15" as="targetPoint" />
          </mxGeometry>
        </mxCell>
        <mxCell id="oRbcvazs0dDL7HtmaMeS-7" value="" style="shape=image;imageAspect=0;aspect=fixed;verticalLabelPosition=bottom;verticalAlign=top;image=data:image/svg+xml,PHN2ZyB4bWxucz0iaHR0cDovL3d3dy53My5vcmcvMjAwMC9zdmciIHdpZHRoPSIxMjgiIGhlaWdodD0iMTI4IiB2aWV3Qm94PSIwIDAgMTI4IDEyOCI+PGcgZmlsbD0iIzYyMzY5NyI+PHBhdGggZD0iTTYxLjE5NSAwaDQuOTUzYzEyLjkxOC41MzUgMjUuNjg4IDQuODkgMzYuMDQzIDEyLjY3NmM5LjgwOSA3LjI4OSAxNy40NzMgMTcuNDM3IDIxLjcyNyAyOC45MDZjMi40NDEgNi4zODcgMy42NjQgMTMuMTggNC4wODIgMTkuOTkydjQuMjExYy0uNDE0IDExLjI5My0zLjY2NCAyMi41Mi05LjczIDMyLjA4MmMtNi44MDEgMTAuODk1LTE2LjkyMiAxOS43My0yOC43MjcgMjQuODI4QTY0LjQgNjQuNCAwIDAgMSA2NS4wODIgMTI4aC0yLjE0NGMtMTEuNzM1LS4xOTEtMjMuNDEtMy42Ni0zMy4yOTctOS45OTJjLTExLjE5Ni03LjExMy0yMC4xMTQtMTcuNzg1LTI1LjAyOC0zMC4xMTdDMS44OTEgODEuMTkuNDQxIDc0LjAyIDAgNjYuODEydi00Ljk1N2MuNTA0LTE0LjM5IDUuOTUzLTI4LjYwOSAxNS40MS0zOS40OTZDMjMuMTY4IDEzLjMxIDMzLjUgNi40OCA0NC44ODcgMi45MzdDNTAuMTcyIDEuMjcgNTUuNjc2LjQxIDYxLjE5NSAwTTI1LjE5MSAzNy41MjNjLS4wMyAxMi4xNTMtLjAxMSAyNC4zMDUtLjAxMSAzNi40NTRjMS40My4wMTEgMi44Ni4wMTEgNC4yOTMuMDExYy0uMDc1LTEwLjQzMy4xMDEtMjAuODYzLS4xMDYtMzEuMjkzYy40OC45MDcuOTE4IDEuODQgMS40NjUgMi43MDdDMzcuMDM1IDU0LjkxIDQzLjEwNSA2NC41IDQ5LjMwOSA3NHEyLjYwNy0uMDM1IDUuMjE0LjAwNGMtLjAwMy0xMi4xNi0uMDA3LTI0LjMyLjAwNC0zNi40OGEzMDggMzA4IDAgMCAwLTQuMjUtLjAxMmMuMDc1IDEwLjMyLS4xMzYgMjAuNjQuMTI1IDMwLjk0OWMtNi41MDctMTAuMzUyLTEzLjEwMS0yMC42NDUtMTkuNjk1LTMwLjk0NWEzNzEgMzcxIDAgMCAwLTUuNTE2LjAwN20zOC44NDQtLjAxMWMtLjEyOSAxMi4xNi0uMDA0IDI0LjMyLS4wNDcgMzYuNDc2YzYuNDY5LS4wMTUgMTIuOTM4LjAyNCAxOS40MS0uMDJhODMgODMgMCAwIDEgLjAyNC0zLjk1MmMtNS4wMTItLjAxNi0xMC4wMjcuMDA3LTE1LjA0My0uMDJjLS4wNzQtNC4yMS0uMDA0LTguNDI2LS4wNC0xMi42MzdjNC4zOTUtLjA3OCA4Ljc5LjAxMiAxMy4xOC0uMDQ3Yy0uMDExLTEuMjc3LS4wMTEtMi41NTQtLjAxOS0zLjgzMmMtNC4zODcuMTQxLTguNzczLS4wNTQtMTMuMTY0LjAxMnEuMDE5LTYuMDM1LjAyLTEyLjA3OGM0LjY5OSAwIDkuMzk4LS4wMiAxNC4wOTMuMDEyYy0uMDA4LTEuMzAxIDAtMi42MDYuMDE2LTMuOTA2Yy02LjE0NS0uMDE2LTEyLjI5LS4wMDgtMTguNDMtLjAwOG0yMi42MDIuMDU0Yy4wMDQgMS4yNjYuMDA0IDIuNTI4LjAwOCAzLjc5YzMuNDg4LS4wNCA2Ljk3Mi4xMDkgMTAuNDYuMDM1Yy0uMDIzIDEwLjg2My4wMDQgMjEuNzE4LS4wMTEgMzIuNTc0YzEuNDYuMDQzIDIuOTMuMDM1IDQuMzktLjA5Yy0uMTItNS45OTIuMTE4LTExLjk4OC0uMTU2LTE3Ljk3N2MuMDY3LTIuNjk5LS4wNy01LjM5NC4xMTctOC4wOWMuMTA2LTIuMTQtLjI3Ny00LjI3Ny0uMDM1LTYuNDE3YzMuNTE2LjA0NyA3LjAzNS4wMTUgMTAuNTUuMDE1YTYwIDYwIDAgMCAxIC4wNzUtMy44MzJjLTguNDY5LS4xMDUtMTYuOTM3LS4wOTQtMjUuMzk4LS4wMDhNMTMuNTUgNjkuMDk0Yy0xLjk3Ny45MS0yLjEwNiA0LjAyMy0uMTQ5IDUuMDI3YzEuNzIgMS4xOCA0LjMwNS0uMzcxIDQuMjI3LTIuNDFjLjEzMy0yLjAwNC0yLjI5LTMuNjg4LTQuMDc4LTIuNjE3bTI5LjIzIDE1LjI4OWMtNC4yNzcgMy40NjktNC4yMjYgMTEuMTk1LjUgMTQuMjVjMi42NjggMS42OTUgNi4xMDIgMS4zNDQgOC45MjIuMjE1cS4wMTctLjkzLjA1LTEuODZjLTIuNjcxIDEuMzk1LTYuNDEgMS42OC04LjY3NS0uNjFjLTIuOTY1LTMuMjM3LTIuMjk3LTkuMjY5IDEuNjEzLTExLjQ3NmMyLjIxMS0xLjE2NCA0LjkwNy0uODI0IDcuMDg2LjIzOWMtLjAwNy0uNjYtLjAwNC0xLjMyIDAtMS45OGMtMy4wOTctMS4wOTktNi45MjItMS4wNC05LjQ5NiAxLjIyMm0xNy4yMDcgMi43MWMtMS44OS4yMi0zLjc1OCAxLjIyLTQuNjMzIDIuOTY2Yy0xLjI1MyAyLjQ5Ni0xLjEwOSA1Ljg2Ny44NjQgNy45NmMyLjAzNSAyLjI5NyA1Ljk0NSAyLjMyIDguMTguMjk3YzIuNDI1LTIuMzA4IDIuNjk5LTYuNDY4Ljc1Ny05LjE2NGMtMS4xNDgtMS42MjktMy4yNzMtMi4xODMtNS4xNjgtMi4wNThtMTcuODg3IDIuNzIyYy0xLjY2IDIuODgzLTEuMzMyIDcuMjUgMS41OTggOS4yMTFjMi4xODMgMS4yMiA0LjkzMy44MzIgNy4wNzQtLjMwOHEtLjAwOC0uOTI3LjAzMS0xLjg0OGMtMS42ODcgMS4wNy0zLjkzNyAxLjg1Ni01LjgxMi43NzdjLTEuMzA5LS43MjItMS43MDQtMi4yNTctMS45MTQtMy42MjVjMi44NzUtLjAzOSA1Ljc0Ni0uMDgyIDguNjI1LS4wNzRjLS4wNzUtMS44MjgtLjExOC0zLjg5NC0xLjQ1LTUuMzA4Yy0yLjE5OS0yLjQzLTYuNjQ0LTEuNjU3LTguMTUyIDEuMTc1TTY5LjQ2IDg3LjQ4djEyLjAwOHEuOTgtLjAwMSAxLjk3My4wMDRjLjAyMy0yLjE5NS0uMDQtNC4zOTQuMDIzLTYuNTk0Yy4wMTYtMS4yNy41MjctMi41NTggMS40ODQtMy40MTRjLjgwMS0uNjA1IDEuODgzLS4yNyAyLjgwMS0uMjQ2cS0uMDE4LS45NTQtLjAyMy0xLjkwMmMtMS43OTMtLjM5OC0zLjMzNi42NTItNC4yNDIgMi4xMTdjLS4wMi0uNjMzLS4wNC0xLjI2Ni0uMDUxLTEuODk0cS0uOTg2LS4wMzctMS45NjUtLjA3OW0wIDAiLz48cGF0aCBkPSJNNTguNzU4IDg5LjIyM2MxLjY1Mi0uODA1IDQuMDIzLS40MSA0Ljk0NSAxLjNjMS4wNSAxLjg4NyAxLjAyNyA0LjM4My0uMTM3IDYuMjExYy0xLjUyIDIuMjg2LTUuNTI3IDEuNzg2LTYuNTIzLS43NDJjLTEuMDA4LTIuMjU4LS42MTctNS40ODQgMS43MTUtNi43N3ptMjAuMjgyIDMuMTkxYy4wNDYtMS41NzQgMS4xNDQtMy4xMzcgMi43MjYtMy40OGMuOTc2LS4xNjQgMi4wOTcuMDA3IDIuNzczLjc5M2MuNjcyLjcxNC44MTMgMS43MTQuOTggMi42NGMtMi4xNi4wMTItNC4zMi0uMDMxLTYuNDguMDQ3em0wIDAiLz48L2c+PC9zdmc+;container=0;" parent="gEJzy3E88VxmJ1Lfmbdc-7" vertex="1">
          <mxGeometry width="60" height="60" as="geometry" />
        </mxCell>
        <mxCell id="gEJzy3E88VxmJ1Lfmbdc-6" value="S2" style="text;html=1;align=center;verticalAlign=middle;whiteSpace=wrap;rounded=0;" vertex="1" parent="gEJzy3E88VxmJ1Lfmbdc-7">
          <mxGeometry x="5.684341886080802e-14" y="60" width="60" height="30" as="geometry" />
        </mxCell>
        <mxCell id="gEJzy3E88VxmJ1Lfmbdc-8" value="" style="group" vertex="1" connectable="0" parent="1">
          <mxGeometry x="350" y="320" width="60.00000000000006" height="90" as="geometry" />
        </mxCell>
        <mxCell id="gEJzy3E88VxmJ1Lfmbdc-9" value="" style="shape=image;imageAspect=0;aspect=fixed;verticalLabelPosition=bottom;verticalAlign=top;image=data:image/svg+xml,PHN2ZyB4bWxucz0iaHR0cDovL3d3dy53My5vcmcvMjAwMC9zdmciIHdpZHRoPSIxMjgiIGhlaWdodD0iMTI4IiB2aWV3Qm94PSIwIDAgMTI4IDEyOCI+PGcgZmlsbD0iIzYyMzY5NyI+PHBhdGggZD0iTTYxLjE5NSAwaDQuOTUzYzEyLjkxOC41MzUgMjUuNjg4IDQuODkgMzYuMDQzIDEyLjY3NmM5LjgwOSA3LjI4OSAxNy40NzMgMTcuNDM3IDIxLjcyNyAyOC45MDZjMi40NDEgNi4zODcgMy42NjQgMTMuMTggNC4wODIgMTkuOTkydjQuMjExYy0uNDE0IDExLjI5My0zLjY2NCAyMi41Mi05LjczIDMyLjA4MmMtNi44MDEgMTAuODk1LTE2LjkyMiAxOS43My0yOC43MjcgMjQuODI4QTY0LjQgNjQuNCAwIDAgMSA2NS4wODIgMTI4aC0yLjE0NGMtMTEuNzM1LS4xOTEtMjMuNDEtMy42Ni0zMy4yOTctOS45OTJjLTExLjE5Ni03LjExMy0yMC4xMTQtMTcuNzg1LTI1LjAyOC0zMC4xMTdDMS44OTEgODEuMTkuNDQxIDc0LjAyIDAgNjYuODEydi00Ljk1N2MuNTA0LTE0LjM5IDUuOTUzLTI4LjYwOSAxNS40MS0zOS40OTZDMjMuMTY4IDEzLjMxIDMzLjUgNi40OCA0NC44ODcgMi45MzdDNTAuMTcyIDEuMjcgNTUuNjc2LjQxIDYxLjE5NSAwTTI1LjE5MSAzNy41MjNjLS4wMyAxMi4xNTMtLjAxMSAyNC4zMDUtLjAxMSAzNi40NTRjMS40My4wMTEgMi44Ni4wMTEgNC4yOTMuMDExYy0uMDc1LTEwLjQzMy4xMDEtMjAuODYzLS4xMDYtMzEuMjkzYy40OC45MDcuOTE4IDEuODQgMS40NjUgMi43MDdDMzcuMDM1IDU0LjkxIDQzLjEwNSA2NC41IDQ5LjMwOSA3NHEyLjYwNy0uMDM1IDUuMjE0LjAwNGMtLjAwMy0xMi4xNi0uMDA3LTI0LjMyLjAwNC0zNi40OGEzMDggMzA4IDAgMCAwLTQuMjUtLjAxMmMuMDc1IDEwLjMyLS4xMzYgMjAuNjQuMTI1IDMwLjk0OWMtNi41MDctMTAuMzUyLTEzLjEwMS0yMC42NDUtMTkuNjk1LTMwLjk0NWEzNzEgMzcxIDAgMCAwLTUuNTE2LjAwN20zOC44NDQtLjAxMWMtLjEyOSAxMi4xNi0uMDA0IDI0LjMyLS4wNDcgMzYuNDc2YzYuNDY5LS4wMTUgMTIuOTM4LjAyNCAxOS40MS0uMDJhODMgODMgMCAwIDEgLjAyNC0zLjk1MmMtNS4wMTItLjAxNi0xMC4wMjcuMDA3LTE1LjA0My0uMDJjLS4wNzQtNC4yMS0uMDA0LTguNDI2LS4wNC0xMi42MzdjNC4zOTUtLjA3OCA4Ljc5LjAxMiAxMy4xOC0uMDQ3Yy0uMDExLTEuMjc3LS4wMTEtMi41NTQtLjAxOS0zLjgzMmMtNC4zODcuMTQxLTguNzczLS4wNTQtMTMuMTY0LjAxMnEuMDE5LTYuMDM1LjAyLTEyLjA3OGM0LjY5OSAwIDkuMzk4LS4wMiAxNC4wOTMuMDEyYy0uMDA4LTEuMzAxIDAtMi42MDYuMDE2LTMuOTA2Yy02LjE0NS0uMDE2LTEyLjI5LS4wMDgtMTguNDMtLjAwOG0yMi42MDIuMDU0Yy4wMDQgMS4yNjYuMDA0IDIuNTI4LjAwOCAzLjc5YzMuNDg4LS4wNCA2Ljk3Mi4xMDkgMTAuNDYuMDM1Yy0uMDIzIDEwLjg2My4wMDQgMjEuNzE4LS4wMTEgMzIuNTc0YzEuNDYuMDQzIDIuOTMuMDM1IDQuMzktLjA5Yy0uMTItNS45OTIuMTE4LTExLjk4OC0uMTU2LTE3Ljk3N2MuMDY3LTIuNjk5LS4wNy01LjM5NC4xMTctOC4wOWMuMTA2LTIuMTQtLjI3Ny00LjI3Ny0uMDM1LTYuNDE3YzMuNTE2LjA0NyA3LjAzNS4wMTUgMTAuNTUuMDE1YTYwIDYwIDAgMCAxIC4wNzUtMy44MzJjLTguNDY5LS4xMDUtMTYuOTM3LS4wOTQtMjUuMzk4LS4wMDhNMTMuNTUgNjkuMDk0Yy0xLjk3Ny45MS0yLjEwNiA0LjAyMy0uMTQ5IDUuMDI3YzEuNzIgMS4xOCA0LjMwNS0uMzcxIDQuMjI3LTIuNDFjLjEzMy0yLjAwNC0yLjI5LTMuNjg4LTQuMDc4LTIuNjE3bTI5LjIzIDE1LjI4OWMtNC4yNzcgMy40NjktNC4yMjYgMTEuMTk1LjUgMTQuMjVjMi42NjggMS42OTUgNi4xMDIgMS4zNDQgOC45MjIuMjE1cS4wMTctLjkzLjA1LTEuODZjLTIuNjcxIDEuMzk1LTYuNDEgMS42OC04LjY3NS0uNjFjLTIuOTY1LTMuMjM3LTIuMjk3LTkuMjY5IDEuNjEzLTExLjQ3NmMyLjIxMS0xLjE2NCA0LjkwNy0uODI0IDcuMDg2LjIzOWMtLjAwNy0uNjYtLjAwNC0xLjMyIDAtMS45OGMtMy4wOTctMS4wOTktNi45MjItMS4wNC05LjQ5NiAxLjIyMm0xNy4yMDcgMi43MWMtMS44OS4yMi0zLjc1OCAxLjIyLTQuNjMzIDIuOTY2Yy0xLjI1MyAyLjQ5Ni0xLjEwOSA1Ljg2Ny44NjQgNy45NmMyLjAzNSAyLjI5NyA1Ljk0NSAyLjMyIDguMTguMjk3YzIuNDI1LTIuMzA4IDIuNjk5LTYuNDY4Ljc1Ny05LjE2NGMtMS4xNDgtMS42MjktMy4yNzMtMi4xODMtNS4xNjgtMi4wNThtMTcuODg3IDIuNzIyYy0xLjY2IDIuODgzLTEuMzMyIDcuMjUgMS41OTggOS4yMTFjMi4xODMgMS4yMiA0LjkzMy44MzIgNy4wNzQtLjMwOHEtLjAwOC0uOTI3LjAzMS0xLjg0OGMtMS42ODcgMS4wNy0zLjkzNyAxLjg1Ni01LjgxMi43NzdjLTEuMzA5LS43MjItMS43MDQtMi4yNTctMS45MTQtMy42MjVjMi44NzUtLjAzOSA1Ljc0Ni0uMDgyIDguNjI1LS4wNzRjLS4wNzUtMS44MjgtLjExOC0zLjg5NC0xLjQ1LTUuMzA4Yy0yLjE5OS0yLjQzLTYuNjQ0LTEuNjU3LTguMTUyIDEuMTc1TTY5LjQ2IDg3LjQ4djEyLjAwOHEuOTgtLjAwMSAxLjk3My4wMDRjLjAyMy0yLjE5NS0uMDQtNC4zOTQuMDIzLTYuNTk0Yy4wMTYtMS4yNy41MjctMi41NTggMS40ODQtMy40MTRjLjgwMS0uNjA1IDEuODgzLS4yNyAyLjgwMS0uMjQ2cS0uMDE4LS45NTQtLjAyMy0xLjkwMmMtMS43OTMtLjM5OC0zLjMzNi42NTItNC4yNDIgMi4xMTdjLS4wMi0uNjMzLS4wNC0xLjI2Ni0uMDUxLTEuODk0cS0uOTg2LS4wMzctMS45NjUtLjA3OW0wIDAiLz48cGF0aCBkPSJNNTguNzU4IDg5LjIyM2MxLjY1Mi0uODA1IDQuMDIzLS40MSA0Ljk0NSAxLjNjMS4wNSAxLjg4NyAxLjAyNyA0LjM4My0uMTM3IDYuMjExYy0xLjUyIDIuMjg2LTUuNTI3IDEuNzg2LTYuNTIzLS43NDJjLTEuMDA4LTIuMjU4LS42MTctNS40ODQgMS43MTUtNi43N3ptMjAuMjgyIDMuMTkxYy4wNDYtMS41NzQgMS4xNDQtMy4xMzcgMi43MjYtMy40OGMuOTc2LS4xNjQgMi4wOTcuMDA3IDIuNzczLjc5M2MuNjcyLjcxNC44MTMgMS43MTQuOTggMi42NGMtMi4xNi4wMTItNC4zMi0uMDMxLTYuNDguMDQ3em0wIDAiLz48L2c+PC9zdmc+;container=0;" vertex="1" parent="gEJzy3E88VxmJ1Lfmbdc-8">
          <mxGeometry width="60" height="60" as="geometry" />
        </mxCell>
        <mxCell id="gEJzy3E88VxmJ1Lfmbdc-10" value="S3" style="text;html=1;align=center;verticalAlign=middle;whiteSpace=wrap;rounded=0;" vertex="1" parent="gEJzy3E88VxmJ1Lfmbdc-8">
          <mxGeometry x="5.684341886080802e-14" y="60" width="60" height="30" as="geometry" />
        </mxCell>
        <mxCell id="gEJzy3E88VxmJ1Lfmbdc-12" value="" style="group" vertex="1" connectable="0" parent="1">
          <mxGeometry x="210" y="410" width="100" height="80" as="geometry" />
        </mxCell>
        <mxCell id="gEJzy3E88VxmJ1Lfmbdc-2" value="" style="sketch=0;pointerEvents=1;shadow=0;dashed=0;html=1;strokeColor=none;labelPosition=center;verticalLabelPosition=bottom;verticalAlign=top;align=center;fillColor=#515151;shape=mxgraph.mscae.system_center.roles" vertex="1" parent="gEJzy3E88VxmJ1Lfmbdc-12">
          <mxGeometry x="29" width="42" height="50" as="geometry" />
        </mxCell>
        <mxCell id="gEJzy3E88VxmJ1Lfmbdc-3" value="External API" style="text;html=1;align=center;verticalAlign=middle;whiteSpace=wrap;rounded=0;" vertex="1" parent="gEJzy3E88VxmJ1Lfmbdc-12">
          <mxGeometry y="50" width="100" height="30" as="geometry" />
        </mxCell>
        <mxCell id="gEJzy3E88VxmJ1Lfmbdc-17" value="Filtered offers" style="text;html=1;align=center;verticalAlign=middle;whiteSpace=wrap;rounded=0;" vertex="1" parent="1">
          <mxGeometry x="150" y="70" width="80" height="30" as="geometry" />
        </mxCell>
        <mxCell id="gEJzy3E88VxmJ1Lfmbdc-18" value="Get offers + JS, C#" style="text;html=1;align=center;verticalAlign=middle;whiteSpace=wrap;rounded=0;" vertex="1" parent="1">
          <mxGeometry x="160" y="140" width="60" height="30" as="geometry" />
        </mxCell>
        <mxCell id="gEJzy3E88VxmJ1Lfmbdc-19" style="edgeStyle=orthogonalEdgeStyle;rounded=0;orthogonalLoop=1;jettySize=auto;html=1;exitX=1;exitY=0.25;exitDx=0;exitDy=0;entryX=0;entryY=0.25;entryDx=0;entryDy=0;" edge="1" parent="1" source="oRbcvazs0dDL7HtmaMeS-7" target="oRbcvazs0dDL7HtmaMeS-32">
          <mxGeometry relative="1" as="geometry" />
        </mxCell>
        <mxCell id="gEJzy3E88VxmJ1Lfmbdc-20" value="Get offers + C#" style="text;html=1;align=center;verticalAlign=middle;whiteSpace=wrap;rounded=0;" vertex="1" parent="1">
          <mxGeometry x="360" y="110" width="100" height="30" as="geometry" />
        </mxCell>
        <mxCell id="gEJzy3E88VxmJ1Lfmbdc-22" value="Filtered offers (C#)" style="text;html=1;align=center;verticalAlign=middle;whiteSpace=wrap;rounded=0;" vertex="1" parent="1">
          <mxGeometry x="350" y="60" width="120" height="30" as="geometry" />
        </mxCell>
        <mxCell id="gEJzy3E88VxmJ1Lfmbdc-28" value="Get offers + JS" style="text;html=1;align=center;verticalAlign=middle;whiteSpace=wrap;rounded=0;" vertex="1" parent="1">
          <mxGeometry x="280" y="370" width="60" height="30" as="geometry" />
        </mxCell>
        <mxCell id="gEJzy3E88VxmJ1Lfmbdc-29" value="" style="group" vertex="1" connectable="0" parent="1">
          <mxGeometry x="470" y="400" width="80" height="90" as="geometry" />
        </mxCell>
        <mxCell id="gEJzy3E88VxmJ1Lfmbdc-5" value="" style="shape=image;imageAspect=0;aspect=fixed;verticalLabelPosition=bottom;verticalAlign=top;image=data:image/svg+xml,PHN2ZyB4bWxucz0iaHR0cDovL3d3dy53My5vcmcvMjAwMC9zdmciIHdpZHRoPSIxMjgiIGhlaWdodD0iMTI4IiB2aWV3Qm94PSIwIDAgMTI4IDEyOCI+PGcgZmlsbD0iIzYyMzY5NyI+PHBhdGggZD0iTTYxLjE5NSAwaDQuOTUzYzEyLjkxOC41MzUgMjUuNjg4IDQuODkgMzYuMDQzIDEyLjY3NmM5LjgwOSA3LjI4OSAxNy40NzMgMTcuNDM3IDIxLjcyNyAyOC45MDZjMi40NDEgNi4zODcgMy42NjQgMTMuMTggNC4wODIgMTkuOTkydjQuMjExYy0uNDE0IDExLjI5My0zLjY2NCAyMi41Mi05LjczIDMyLjA4MmMtNi44MDEgMTAuODk1LTE2LjkyMiAxOS43My0yOC43MjcgMjQuODI4QTY0LjQgNjQuNCAwIDAgMSA2NS4wODIgMTI4aC0yLjE0NGMtMTEuNzM1LS4xOTEtMjMuNDEtMy42Ni0zMy4yOTctOS45OTJjLTExLjE5Ni03LjExMy0yMC4xMTQtMTcuNzg1LTI1LjAyOC0zMC4xMTdDMS44OTEgODEuMTkuNDQxIDc0LjAyIDAgNjYuODEydi00Ljk1N2MuNTA0LTE0LjM5IDUuOTUzLTI4LjYwOSAxNS40MS0zOS40OTZDMjMuMTY4IDEzLjMxIDMzLjUgNi40OCA0NC44ODcgMi45MzdDNTAuMTcyIDEuMjcgNTUuNjc2LjQxIDYxLjE5NSAwTTI1LjE5MSAzNy41MjNjLS4wMyAxMi4xNTMtLjAxMSAyNC4zMDUtLjAxMSAzNi40NTRjMS40My4wMTEgMi44Ni4wMTEgNC4yOTMuMDExYy0uMDc1LTEwLjQzMy4xMDEtMjAuODYzLS4xMDYtMzEuMjkzYy40OC45MDcuOTE4IDEuODQgMS40NjUgMi43MDdDMzcuMDM1IDU0LjkxIDQzLjEwNSA2NC41IDQ5LjMwOSA3NHEyLjYwNy0uMDM1IDUuMjE0LjAwNGMtLjAwMy0xMi4xNi0uMDA3LTI0LjMyLjAwNC0zNi40OGEzMDggMzA4IDAgMCAwLTQuMjUtLjAxMmMuMDc1IDEwLjMyLS4xMzYgMjAuNjQuMTI1IDMwLjk0OWMtNi41MDctMTAuMzUyLTEzLjEwMS0yMC42NDUtMTkuNjk1LTMwLjk0NWEzNzEgMzcxIDAgMCAwLTUuNTE2LjAwN20zOC44NDQtLjAxMWMtLjEyOSAxMi4xNi0uMDA0IDI0LjMyLS4wNDcgMzYuNDc2YzYuNDY5LS4wMTUgMTIuOTM4LjAyNCAxOS40MS0uMDJhODMgODMgMCAwIDEgLjAyNC0zLjk1MmMtNS4wMTItLjAxNi0xMC4wMjcuMDA3LTE1LjA0My0uMDJjLS4wNzQtNC4yMS0uMDA0LTguNDI2LS4wNC0xMi42MzdjNC4zOTUtLjA3OCA4Ljc5LjAxMiAxMy4xOC0uMDQ3Yy0uMDExLTEuMjc3LS4wMTEtMi41NTQtLjAxOS0zLjgzMmMtNC4zODcuMTQxLTguNzczLS4wNTQtMTMuMTY0LjAxMnEuMDE5LTYuMDM1LjAyLTEyLjA3OGM0LjY5OSAwIDkuMzk4LS4wMiAxNC4wOTMuMDEyYy0uMDA4LTEuMzAxIDAtMi42MDYuMDE2LTMuOTA2Yy02LjE0NS0uMDE2LTEyLjI5LS4wMDgtMTguNDMtLjAwOG0yMi42MDIuMDU0Yy4wMDQgMS4yNjYuMDA0IDIuNTI4LjAwOCAzLjc5YzMuNDg4LS4wNCA2Ljk3Mi4xMDkgMTAuNDYuMDM1Yy0uMDIzIDEwLjg2My4wMDQgMjEuNzE4LS4wMTEgMzIuNTc0YzEuNDYuMDQzIDIuOTMuMDM1IDQuMzktLjA5Yy0uMTItNS45OTIuMTE4LTExLjk4OC0uMTU2LTE3Ljk3N2MuMDY3LTIuNjk5LS4wNy01LjM5NC4xMTctOC4wOWMuMTA2LTIuMTQtLjI3Ny00LjI3Ny0uMDM1LTYuNDE3YzMuNTE2LjA0NyA3LjAzNS4wMTUgMTAuNTUuMDE1YTYwIDYwIDAgMCAxIC4wNzUtMy44MzJjLTguNDY5LS4xMDUtMTYuOTM3LS4wOTQtMjUuMzk4LS4wMDhNMTMuNTUgNjkuMDk0Yy0xLjk3Ny45MS0yLjEwNiA0LjAyMy0uMTQ5IDUuMDI3YzEuNzIgMS4xOCA0LjMwNS0uMzcxIDQuMjI3LTIuNDFjLjEzMy0yLjAwNC0yLjI5LTMuNjg4LTQuMDc4LTIuNjE3bTI5LjIzIDE1LjI4OWMtNC4yNzcgMy40NjktNC4yMjYgMTEuMTk1LjUgMTQuMjVjMi42NjggMS42OTUgNi4xMDIgMS4zNDQgOC45MjIuMjE1cS4wMTctLjkzLjA1LTEuODZjLTIuNjcxIDEuMzk1LTYuNDEgMS42OC04LjY3NS0uNjFjLTIuOTY1LTMuMjM3LTIuMjk3LTkuMjY5IDEuNjEzLTExLjQ3NmMyLjIxMS0xLjE2NCA0LjkwNy0uODI0IDcuMDg2LjIzOWMtLjAwNy0uNjYtLjAwNC0xLjMyIDAtMS45OGMtMy4wOTctMS4wOTktNi45MjItMS4wNC05LjQ5NiAxLjIyMm0xNy4yMDcgMi43MWMtMS44OS4yMi0zLjc1OCAxLjIyLTQuNjMzIDIuOTY2Yy0xLjI1MyAyLjQ5Ni0xLjEwOSA1Ljg2Ny44NjQgNy45NmMyLjAzNSAyLjI5NyA1Ljk0NSAyLjMyIDguMTguMjk3YzIuNDI1LTIuMzA4IDIuNjk5LTYuNDY4Ljc1Ny05LjE2NGMtMS4xNDgtMS42MjktMy4yNzMtMi4xODMtNS4xNjgtMi4wNThtMTcuODg3IDIuNzIyYy0xLjY2IDIuODgzLTEuMzMyIDcuMjUgMS41OTggOS4yMTFjMi4xODMgMS4yMiA0LjkzMy44MzIgNy4wNzQtLjMwOHEtLjAwOC0uOTI3LjAzMS0xLjg0OGMtMS42ODcgMS4wNy0zLjkzNyAxLjg1Ni01LjgxMi43NzdjLTEuMzA5LS43MjItMS43MDQtMi4yNTctMS45MTQtMy42MjVjMi44NzUtLjAzOSA1Ljc0Ni0uMDgyIDguNjI1LS4wNzRjLS4wNzUtMS44MjgtLjExOC0zLjg5NC0xLjQ1LTUuMzA4Yy0yLjE5OS0yLjQzLTYuNjQ0LTEuNjU3LTguMTUyIDEuMTc1TTY5LjQ2IDg3LjQ4djEyLjAwOHEuOTgtLjAwMSAxLjk3My4wMDRjLjAyMy0yLjE5NS0uMDQtNC4zOTQuMDIzLTYuNTk0Yy4wMTYtMS4yNy41MjctMi41NTggMS40ODQtMy40MTRjLjgwMS0uNjA1IDEuODgzLS4yNyAyLjgwMS0uMjQ2cS0uMDE4LS45NTQtLjAyMy0xLjkwMmMtMS43OTMtLjM5OC0zLjMzNi42NTItNC4yNDIgMi4xMTdjLS4wMi0uNjMzLS4wNC0xLjI2Ni0uMDUxLTEuODk0cS0uOTg2LS4wMzctMS45NjUtLjA3OW0wIDAiLz48cGF0aCBkPSJNNTguNzU4IDg5LjIyM2MxLjY1Mi0uODA1IDQuMDIzLS40MSA0Ljk0NSAxLjNjMS4wNSAxLjg4NyAxLjAyNyA0LjM4My0uMTM3IDYuMjExYy0xLjUyIDIuMjg2LTUuNTI3IDEuNzg2LTYuNTIzLS43NDJjLTEuMDA4LTIuMjU4LS42MTctNS40ODQgMS43MTUtNi43N3ptMjAuMjgyIDMuMTkxYy4wNDYtMS41NzQgMS4xNDQtMy4xMzcgMi43MjYtMy40OGMuOTc2LS4xNjQgMi4wOTcuMDA3IDIuNzczLjc5M2MuNjcyLjcxNC44MTMgMS43MTQuOTggMi42NGMtMi4xNi4wMTItNC4zMi0uMDMxLTYuNDguMDQ3em0wIDAiLz48L2c+PC9zdmc+;container=0;" vertex="1" parent="gEJzy3E88VxmJ1Lfmbdc-29">
          <mxGeometry x="10" width="60" height="60" as="geometry" />
        </mxCell>
        <mxCell id="gEJzy3E88VxmJ1Lfmbdc-11" value="Web scrapper" style="text;html=1;align=center;verticalAlign=middle;whiteSpace=wrap;rounded=0;" vertex="1" parent="gEJzy3E88VxmJ1Lfmbdc-29">
          <mxGeometry y="60" width="80" height="30" as="geometry" />
        </mxCell>
        <mxCell id="gEJzy3E88VxmJ1Lfmbdc-30" style="edgeStyle=orthogonalEdgeStyle;rounded=0;orthogonalLoop=1;jettySize=auto;html=1;exitX=0;exitY=0.75;exitDx=0;exitDy=0;entryX=0.5;entryY=0;entryDx=0;entryDy=0;entryPerimeter=0;" edge="1" parent="1" source="gEJzy3E88VxmJ1Lfmbdc-9" target="gEJzy3E88VxmJ1Lfmbdc-2">
          <mxGeometry relative="1" as="geometry" />
        </mxCell>
        <mxCell id="gEJzy3E88VxmJ1Lfmbdc-31" style="edgeStyle=orthogonalEdgeStyle;rounded=0;orthogonalLoop=1;jettySize=auto;html=1;exitX=0.02;exitY=0.02;exitDx=0;exitDy=0;exitPerimeter=0;entryX=0;entryY=0.25;entryDx=0;entryDy=0;" edge="1" parent="1" source="gEJzy3E88VxmJ1Lfmbdc-2" target="gEJzy3E88VxmJ1Lfmbdc-9">
          <mxGeometry relative="1" as="geometry" />
        </mxCell>
        <mxCell id="gEJzy3E88VxmJ1Lfmbdc-32" style="edgeStyle=orthogonalEdgeStyle;rounded=0;orthogonalLoop=1;jettySize=auto;html=1;exitX=1;exitY=0.75;exitDx=0;exitDy=0;entryX=0.25;entryY=0;entryDx=0;entryDy=0;" edge="1" parent="1" source="gEJzy3E88VxmJ1Lfmbdc-9" target="gEJzy3E88VxmJ1Lfmbdc-5">
          <mxGeometry relative="1" as="geometry" />
        </mxCell>
        <mxCell id="gEJzy3E88VxmJ1Lfmbdc-33" style="edgeStyle=orthogonalEdgeStyle;rounded=0;orthogonalLoop=1;jettySize=auto;html=1;exitX=0.75;exitY=0;exitDx=0;exitDy=0;entryX=1;entryY=0.25;entryDx=0;entryDy=0;" edge="1" parent="1" source="gEJzy3E88VxmJ1Lfmbdc-5" target="gEJzy3E88VxmJ1Lfmbdc-9">
          <mxGeometry relative="1" as="geometry" />
        </mxCell>
        <mxCell id="gEJzy3E88VxmJ1Lfmbdc-34" value="Get offers + JS" style="text;html=1;align=center;verticalAlign=middle;whiteSpace=wrap;rounded=0;" vertex="1" parent="1">
          <mxGeometry x="420" y="370" width="60" height="30" as="geometry" />
        </mxCell>
        <mxCell id="gEJzy3E88VxmJ1Lfmbdc-35" value="Offers (JS)" style="text;html=1;align=center;verticalAlign=middle;whiteSpace=wrap;rounded=0;" vertex="1" parent="1">
          <mxGeometry x="440" y="300" width="60" height="30" as="geometry" />
        </mxCell>
        <mxCell id="gEJzy3E88VxmJ1Lfmbdc-36" value="Offers (JS)" style="text;html=1;align=center;verticalAlign=middle;whiteSpace=wrap;rounded=0;" vertex="1" parent="1">
          <mxGeometry x="260" y="300" width="60" height="30" as="geometry" />
        </mxCell>
        <mxCell id="gEJzy3E88VxmJ1Lfmbdc-37" style="edgeStyle=orthogonalEdgeStyle;rounded=0;orthogonalLoop=1;jettySize=auto;html=1;exitX=1;exitY=1;exitDx=0;exitDy=0;entryX=0.25;entryY=0;entryDx=0;entryDy=0;" edge="1" parent="1" source="oRbcvazs0dDL7HtmaMeS-7" target="gEJzy3E88VxmJ1Lfmbdc-9">
          <mxGeometry relative="1" as="geometry" />
        </mxCell>
        <mxCell id="gEJzy3E88VxmJ1Lfmbdc-39" value="Get offers + JS" style="text;html=1;align=center;verticalAlign=middle;whiteSpace=wrap;rounded=0;" vertex="1" parent="1">
          <mxGeometry x="300" y="240" width="60" height="30" as="geometry" />
        </mxCell>
        <mxCell id="gEJzy3E88VxmJ1Lfmbdc-38" style="edgeStyle=orthogonalEdgeStyle;rounded=0;orthogonalLoop=1;jettySize=auto;html=1;exitX=0.75;exitY=0;exitDx=0;exitDy=0;entryX=1;entryY=0.75;entryDx=0;entryDy=0;" edge="1" parent="1" source="gEJzy3E88VxmJ1Lfmbdc-9" target="oRbcvazs0dDL7HtmaMeS-7">
          <mxGeometry relative="1" as="geometry">
            <mxPoint x="450" y="270" as="sourcePoint" />
            <Array as="points">
              <mxPoint x="395" y="210" />
              <mxPoint x="330" y="210" />
              <mxPoint x="330" y="135" />
            </Array>
          </mxGeometry>
        </mxCell>
        <mxCell id="gEJzy3E88VxmJ1Lfmbdc-41" value="Combined offers" style="text;html=1;align=center;verticalAlign=middle;whiteSpace=wrap;rounded=0;" vertex="1" parent="1">
          <mxGeometry x="360" y="180" width="90" height="30" as="geometry" />
        </mxCell>
        <mxCell id="gEJzy3E88VxmJ1Lfmbdc-43" value="TAGS" style="swimlane;fontStyle=0;childLayout=stackLayout;horizontal=1;startSize=30;horizontalStack=0;resizeParent=1;resizeParentMax=0;resizeLast=0;collapsible=1;marginBottom=0;whiteSpace=wrap;html=1;" vertex="1" parent="1">
          <mxGeometry x="70" y="200" width="80" height="120" as="geometry" />
        </mxCell>
        <mxCell id="gEJzy3E88VxmJ1Lfmbdc-44" value="C#" style="text;strokeColor=none;fillColor=none;align=left;verticalAlign=middle;spacingLeft=4;spacingRight=4;overflow=hidden;points=[[0,0.5],[1,0.5]];portConstraint=eastwest;rotatable=0;whiteSpace=wrap;html=1;" vertex="1" parent="gEJzy3E88VxmJ1Lfmbdc-43">
          <mxGeometry y="30" width="80" height="30" as="geometry" />
        </mxCell>
        <mxCell id="gEJzy3E88VxmJ1Lfmbdc-45" value="JAVA" style="text;strokeColor=none;fillColor=none;align=left;verticalAlign=middle;spacingLeft=4;spacingRight=4;overflow=hidden;points=[[0,0.5],[1,0.5]];portConstraint=eastwest;rotatable=0;whiteSpace=wrap;html=1;" vertex="1" parent="gEJzy3E88VxmJ1Lfmbdc-43">
          <mxGeometry y="60" width="80" height="30" as="geometry" />
        </mxCell>
        <mxCell id="gEJzy3E88VxmJ1Lfmbdc-46" value="..." style="text;strokeColor=none;fillColor=none;align=left;verticalAlign=middle;spacingLeft=4;spacingRight=4;overflow=hidden;points=[[0,0.5],[1,0.5]];portConstraint=eastwest;rotatable=0;whiteSpace=wrap;html=1;" vertex="1" parent="gEJzy3E88VxmJ1Lfmbdc-43">
          <mxGeometry y="90" width="80" height="30" as="geometry" />
        </mxCell>
        <mxCell id="gEJzy3E88VxmJ1Lfmbdc-48" style="edgeStyle=orthogonalEdgeStyle;rounded=0;orthogonalLoop=1;jettySize=auto;html=1;exitX=0;exitY=1;exitDx=0;exitDy=0;entryX=1;entryY=0.25;entryDx=0;entryDy=0;" edge="1" parent="1" source="gEJzy3E88VxmJ1Lfmbdc-6" target="gEJzy3E88VxmJ1Lfmbdc-43">
          <mxGeometry relative="1" as="geometry" />
        </mxCell>
        <mxCell id="gEJzy3E88VxmJ1Lfmbdc-49" style="edgeStyle=orthogonalEdgeStyle;rounded=0;orthogonalLoop=1;jettySize=auto;html=1;exitX=1;exitY=0.5;exitDx=0;exitDy=0;entryX=0.5;entryY=1;entryDx=0;entryDy=0;" edge="1" parent="1" source="gEJzy3E88VxmJ1Lfmbdc-45" target="gEJzy3E88VxmJ1Lfmbdc-6">
          <mxGeometry relative="1" as="geometry" />
        </mxCell>
        <mxCell id="gEJzy3E88VxmJ1Lfmbdc-50" value="Contains (JS, C#) ?" style="text;html=1;align=center;verticalAlign=middle;whiteSpace=wrap;rounded=0;" vertex="1" parent="1">
          <mxGeometry x="160" y="190" width="70" height="30" as="geometry" />
        </mxCell>
        <mxCell id="gEJzy3E88VxmJ1Lfmbdc-51" value="JS = False&lt;div&gt;C# = True&lt;/div&gt;" style="text;html=1;align=center;verticalAlign=middle;whiteSpace=wrap;rounded=0;" vertex="1" parent="1">
          <mxGeometry x="180" y="280" width="60" height="30" as="geometry" />
        </mxCell>
        <mxCell id="gEJzy3E88VxmJ1Lfmbdc-52" value="+ JS (NEW)" style="text;html=1;align=center;verticalAlign=middle;whiteSpace=wrap;rounded=0;" vertex="1" parent="1">
          <mxGeometry x="75" y="330" width="70" height="30" as="geometry" />
        </mxCell>
      </root>
    </mxGraphModel>
  </diagram>
</mxfile>
